<?xml version="1.0" encoding="utf-8"?>
<!-- Generator: Adobe Illustrator 24.1.1, SVG Export Plug-In . SVG Version: 6.00 Build 0)  -->
<svg version="1.1" id="Layer_1" xmlns="http://www.w3.org/2000/svg" xmlns:xlink="http://www.w3.org/1999/xlink" x="0px" y="0px"
	 viewBox="0 0 1000 1000" style="enable-background:new 0 0 1000 1000;" xml:space="preserve">
<style type="text/css">
	.st0{fill:#010101;}
</style>
<g transform="translate(0.000000,1024.000000) scale(0.100000,-0.100000)">
	<path class="st0" d="M4550.8,7997c-47-21.8-103.8-46.4-126.1-54.5c-48.2-17.2-94.6-41.8-100.9-53.9c-2.3-4.6-31.5-57.3-64.8-117.5
		c-91.7-166.2-110.6-209.2-118.1-266.6c-4-28.1-5.2-70.5-2.9-100.9l4-52.2l-33.2-25.2c-95.7-72.2-174.8-108.3-287.8-131.8
		c-122.7-24.6-239-73.9-307.3-129.6c-36.7-29.8-59.6-56.8-53.3-62.5c2.3-2.3,44.7-4.6,94-5.2c110.6-1.7,194.9-16.6,357.1-63.1
		c96.3-28.1,120.4-32.7,174.8-35.5c58.5-2.9,108.3,3.4,147.3,18.3c7.5,2.9,10.9-2.9,18.9-29.8c15.5-53.9,56.8-116.4,95.7-142.7
		c24.6-17.2,24.1-23.5-5.2-28.7c-65.3-12-114.6-115.2-98.6-206.4c12.6-73.4-1.7-129-75.1-283.2c-24.6-52.2-50.4-111.8-57.3-133
		c-15.5-48.2-34.4-76.8-49.3-75.1c-40.1,5.2-94.6,1.7-111.2-6.9c-21.8-11.5-37.8-36.1-42.4-66.5c-10.3-66.5-78-147.3-152.5-185.2
		c-39-19.5-45.3-20.6-91.7-20.1c-39.6,0.6-56.2-2.3-79.7-12c-31.5-13.8-75.1-57.3-75.1-74.5c0-5.7,8-26.9,17.8-48.2
		c25.2-54.5,16-73.9-52.2-110.1c-45.9-24.1-129.6-86.6-202.9-151.3c-71.1-63.1-86-90-82.5-150.8c1.7-35.5,5.7-49.9,25.8-90.6
		c46.4-92.9,115.2-146.8,83.7-64.8c-2.3,6.9-1.7,8.6,2.9,5.7c3.4-2.3,11.5-1.7,16.6,1.1c5.7,2.9,20.6,4,33.2,1.7l23.5-3.4
		l-13.2-123.2c-6.9-67.6-19.5-163.4-27.5-212.1c-22.4-136.4-18.9-331.3,7.5-409.3c8.6-25.2,9.7-53.9,9.7-209.8
		c0-99.2-2.3-237.3-5.2-306.7c-4-97.5-2.9-140.4,2.9-189.2c11.5-91.1,9.7-197.8-6.3-362.3c-12-125.5-12.6-151.3-6.9-192
		c3.4-26.4,12-99.2,18.3-162.2c20.6-201.8,33.8-243.6,74.5-243.6c21.2,0,22.9,6.9,10.3,43.6c-16,48.2-24.1,204.6-16.6,327.3
		c8,125.5,25.2,307.8,44.1,474.6c13.2,115.8,19.5,156.5,37.8,252.2c3.4,18.9,6.9,82,6.9,140.4c0,86.6-1.7,110.6-9.7,131.3
		c-13.8,35.5-12,58.5,10.9,149l20.6,80.3l-26.4,185.2c-14.3,102-28.7,209.8-32.1,239.6c-8.6,86.6-18.3,353.1-14.3,412.7
		c4,64.2,14.3,131.8,20.1,131.8c2.3,0,17.8-34.4,34.4-76.2c39.6-100.9,86.6-175.4,157.1-249.9c90-95.2,223-161.1,325-161.1h22.9
		l-3.4-26.9c-23.5-201.8-102-811.7-186.3-1452c-18.9-143.3-35-265.4-36.1-271.1c-1.1-9.7,4.6-10.9,51-13.2
		c51-1.7,152.5-20.6,219.6-40.7l32.1-9.2l-25.8-6.9c-14.3-4-53.9-21.2-88.9-38.4c-34.4-17.2-74-33.2-87.7-35.5
		c-37.3-5.7-76.8-28.1-103.8-58.5c-12.6-14.9-23.5-29.2-23.5-31.5c0-2.9,7.5-3.4,17.2-1.7c13.2,2.9,21.8,0,37.3-11.5
		c37.3-28.7,70.5-39.6,129-42.4c29.8-1.1,69.4,0.6,88.3,4c43.6,8,89.4-4.6,89.4-24.7c0-18.9,10.9-27.5,21.2-17.2
		c12,11.5,26.9,9.7,51-6.3c26.9-18.3,52.2-22.4,99.2-17.2c20.6,2.3,43,3.4,49.3,2.9c6.3-0.6,48.7-1.7,94.6-2.9
		c103.8-2.3,169.1,7.5,205.8,32.1c30.4,20.1,45.3,20.6,67.1,4c14.9-12,22.9-13.2,79.7-13.2c68.8,0,94,6.9,108.3,28.7
		c4.6,6.9,20.6,17.2,35.5,22.4c24.1,8,28.1,8,43.6,0c9.7-5.2,36.1-11.5,58.5-13.8c22.4-2.9,50.4-7.5,62.5-10.3
		c29.2-8,56.8,0.6,83.7,24.6c19.5,17.8,23.5,19.5,40.1,14.3c47.6-13.8,202.4-12,346.2,3.4l32.7,4v-16c0-8.6-10.9-40.7-23.5-71.1
		c-22.9-52.2-23.5-56.2-17.2-80.8c9.2-33.8,32.7-62.5,65.3-79.7c31-15.5,45.9-13.8,73.4,9.2c16.6,14.3,24.1,16,61.9,16.6
		c24.1,0.6,62.5,5.2,85.4,10.3c40.1,8.6,43,8.6,57.3-1.7c17.8-12,58.5-25.8,106.6-35c18.9-4,43.6-13.8,55.6-22.9
		c12-8.6,33.8-18.9,48.2-22.4c33.8-8.6,55.6,1.1,100.9,45.3l33.3,32.7l113.5-5.2c62.5-2.3,127.8-6.3,145.6-8
		c28.7-2.9,33.8-1.7,49.9,12c33.2,28.1,29.8,79.7-9.7,136.4c-32.1,45.9-32.1,44.1-9.2,37.8c23.5-6.3,55.6,0.6,72.2,15.5
		c6.9,6.3,10.9,17.8,10.9,31c0,24.1-8.6,36.1-86,121c-98,107.2-149.6,178.3-185.7,253.4c-32.7,69.4-43,115.8-49.3,224.7
		c-5.7,104.3-18.9,205.8-43,330.2c-34.4,176.6-97.5,427.1-149.6,593.9c-47,149.6-53.3,173.1-68.2,262
		c-18.3,111.2-28.7,202.4-43,373.2c-16.6,204.1-35.5,633.4-28.7,633.4c1.7,0,10.3-29.2,18.9-64.8c16.6-68.2,55.6-153.6,92.3-204.1
		c61.3-83.1,160.5-151.9,281.5-195.5c61.3-21.8,133.6-26.4,170.3-10.3c65.3,29.2,116.9,116.4,119.8,203.5
		c1.1,26.9-0.6,31.5-14.3,42.4c-14.3,11.5-15.5,14.9-12.6,39c14.3,107.8,10.3,159.9-22.9,298.1c-16.1,64.2-24.7,88.9-38.4,108.3
		c-16.6,22.9-18.3,29.2-17.8,66.5c0,22.4,7.5,68.8,15.5,103.8c8.6,35,17.8,81.4,21.2,103.2c6.9,49.9,6.9,209.8,0,263.7
		c-4.6,35.5-3.4,41.8,6.9,59c16,26.4,53.9,50.4,115.2,72.8c71.7,26.9,82.5,40.1,78.5,97.5c-1.7,22.9-31.5,80.8-47.6,91.1
		c-36.1,23.5-104.3,12.6-161.1-25.2c-104.3-69.9-147.9,36.1-59,142.2c30.4,36.1,37.3,62.5,24.6,95.7c-11.5,29.2-35,49.9-71.7,63.1
		c-75.1,26.4-119.2-6.9-161.6-120.4c-9.7-25.8-17.8-36.1-41.3-53.9c-47.6-34.4-49.9-35.5-84.3-26.4c-16.6,4.6-44.7,9.7-62.5,12
		c-38.4,4.6-46.4,9.7-46.4,31c0,26.4-21.8,75.1-51.6,115.8c-49.3,67.1-139.9,131.8-243.6,173.1c-28.1,11.5-58.5,24.7-66.5,29.2
		c-28.7,16-83.1,25.8-158.2,29.8l-75.7,3.4l-18.3-15.5c-18.3-15.5-60.8-39-83.1-45.9c-20.6-6.3-21.8,30.4-5.2,113.5
		c8,39,14.3,90.6,14.3,115.2c0,40.7,1.1,45.3,16.6,60.8c12,12,22.4,16.6,36.1,16.6c48.7,0,146.2,44.1,198.3,89.4
		c48.7,42.4,109.5,139.3,205.8,329c28.7,56.2,52.2,75.1,100.3,79.7c42.4,4,48.1,13.2,25.2,43c-35.5,47-108.3,56.8-198.3,26.4
		c-28.1-9.2-88.9-35.5-135.9-59c-106-53.3-180-72.2-337.1-87.1l-40.1-4l-8,21.8c-14.3,42.4-57.9,104.3-99.7,142.7
		c-74,68.8-189.7,115.8-339.4,137.6c-34.4,5.2-72.8,13.2-84.8,17.8c-11.5,4.6-37.3,8-57.3,8
		C4640.2,8037.7,4628.7,8033.7,4550.8,7997z"/>
</g>
</svg>
